<svg width="206" height="52" viewBox="0 0 206 52" fill="none" xmlns="http://www.w3.org/2000/svg">
<g clip-path="url(#clip0_5_9)">
<path d="M51.7767 38.9416C51.7767 39.2851 51.7154 39.6041 51.5927 39.8985C51.4701 40.1929 51.2983 40.4505 51.0775 40.6713C50.869 40.8798 50.6175 41.0454 50.3231 41.1681C50.0287 41.2907 49.7098 41.3521 49.3663 41.3521H32.1069C31.6653 41.3521 31.1868 41.303 30.6716 41.2049C30.1687 41.0945 29.6658 40.9289 29.1628 40.7081C28.6721 40.4873 28.1999 40.2051 27.746 39.8617C27.2921 39.5059 26.8873 39.0827 26.5316 38.592C26.1881 38.0891 25.9121 37.5126 25.7036 36.8624C25.495 36.2 25.3908 35.4579 25.3908 34.636V21.6822C25.3908 21.2406 25.4398 20.7683 25.538 20.2654C25.6484 19.7502 25.814 19.2472 26.0348 18.7566C26.2556 18.2536 26.5438 17.7752 26.8996 17.3213C27.2553 16.8675 27.6785 16.4688 28.1692 16.1253C28.6721 15.7696 29.2487 15.4874 29.8988 15.2789C30.549 15.0704 31.285 14.9661 32.1069 14.9661H51.5559V19.7502H32.1069C31.4813 19.7502 31.0028 19.9158 30.6716 20.247C30.3404 20.5782 30.1748 21.0689 30.1748 21.719V34.636C30.1748 35.2493 30.3404 35.7277 30.6716 36.0712C31.0151 36.4024 31.4935 36.568 32.1069 36.568H46.9927V30.5695H34.2597V25.7487H49.3663C49.7098 25.7487 50.0287 25.8161 50.3231 25.9511C50.6175 26.0737 50.869 26.2455 51.0775 26.4663C51.2983 26.6871 51.4701 26.9447 51.5927 27.2391C51.7154 27.5212 51.7767 27.8279 51.7767 28.1591V38.9416ZM72.8853 26.2434H62.1196C61.4694 26.2434 60.9787 26.409 60.6474 26.7403C60.3162 27.0593 60.1505 27.5316 60.1505 28.1573V41.3521H55.3658V28.1573C55.3658 27.3353 55.4701 26.5992 55.6787 25.9489C55.8872 25.2987 56.1633 24.7282 56.5068 24.2375C56.8626 23.7345 57.2674 23.3112 57.7214 22.9677C58.1753 22.6119 58.6476 22.3236 59.1384 22.1028C59.6414 21.8819 60.1444 21.7224 60.6474 21.6243C61.1627 21.5139 61.6412 21.4587 62.0828 21.4587H72.8853V26.2434ZM94.2884 34.7639C94.2884 35.4264 94.1719 36.1441 93.9388 36.917C93.7057 37.6777 93.3254 38.3892 92.7978 39.0517C92.2825 39.702 91.6016 40.2479 90.7551 40.6896C89.9209 41.1312 88.9026 41.3521 87.7003 41.3521H79.0693C78.4068 41.3521 77.6891 41.2355 76.9162 41.0024C76.1556 40.7693 75.444 40.3951 74.7815 39.8799C74.1313 39.3523 73.5853 38.6714 73.1436 37.8371C72.702 36.9906 72.4811 35.9662 72.4811 34.7639C72.4811 34.1014 72.5977 33.3837 72.8308 32.6108C73.0639 31.8378 73.4381 31.1263 73.9534 30.476C74.4809 29.8135 75.1618 29.2615 75.9961 28.8198C76.8426 28.3781 77.867 28.1573 79.0693 28.1573H87.7003V32.7212H79.0693C78.4191 32.7212 77.9161 32.9236 77.5603 33.3285C77.2045 33.7211 77.0266 34.2118 77.0266 34.8007C77.0266 35.4264 77.2291 35.9171 77.6339 36.2729C78.0511 36.6164 78.5418 36.7882 79.1061 36.7882H87.7003C88.3505 36.7882 88.8535 36.5919 89.2093 36.1993C89.5651 35.8067 89.743 35.316 89.743 34.7271V28.0469C89.743 27.4212 89.5467 26.9243 89.1541 26.5562C88.7737 26.1882 88.2891 26.0042 87.7003 26.0042H77.1923V21.4587H87.7003C88.3628 21.4587 89.0743 21.5752 89.835 21.8083C90.6079 22.0414 91.3195 22.4217 91.9697 22.9493C92.6322 23.4646 93.1843 24.1455 93.6259 24.992C94.0676 25.8263 94.2884 26.8446 94.2884 28.0469V34.7639ZM119.667 41.3521H114.882V30.3104C114.882 29.6847 114.771 29.1265 114.551 28.6358C114.342 28.1327 114.054 27.7033 113.686 27.3476C113.318 26.9918 112.882 26.7219 112.379 26.5378C111.888 26.3415 111.355 26.2434 110.778 26.2434H102.405V41.3521H97.6201V23.8326C97.6201 23.5014 97.6814 23.1947 97.8041 22.9125C97.9268 22.618 98.0986 22.3665 98.3194 22.158C98.5402 21.9371 98.7979 21.7654 99.0923 21.6427C99.3868 21.52 99.6996 21.4587 100.031 21.4587H110.815C111.416 21.4587 112.048 21.5261 112.71 21.6611C113.385 21.7961 114.048 22.0169 114.698 22.3236C115.36 22.618 115.986 22.9984 116.575 23.4646C117.176 23.9185 117.704 24.4767 118.158 25.1392C118.624 25.7895 118.992 26.544 119.262 27.4028C119.532 28.2616 119.667 29.2308 119.667 30.3104V41.3521ZM140.61 26.2434H132.255V41.3521H127.415V26.2434H121.195V21.4587H127.415V14.9625H132.255V21.4587H140.61V26.2434ZM191.197 34.6351C191.197 35.4571 191.093 36.1993 190.884 36.8618C190.675 37.512 190.399 38.0887 190.056 38.5917C189.712 39.0824 189.314 39.5057 188.86 39.8615C188.406 40.205 187.927 40.4872 187.424 40.708C186.934 40.9288 186.431 41.0944 185.915 41.2049C185.412 41.303 184.934 41.3521 184.48 41.3521H175.849C175.027 41.3521 174.291 41.2478 173.641 41.0392C172.99 40.8307 172.414 40.5546 171.911 40.2111C171.42 39.8553 170.997 39.4505 170.641 38.9965C170.297 38.5426 170.015 38.0703 169.794 37.5795C169.574 37.0765 169.408 36.5735 169.298 36.0705C169.199 35.5552 169.15 35.0767 169.15 34.6351V28.1573C169.15 26.9304 169.371 25.8937 169.813 25.0472C170.267 24.1884 170.825 23.4952 171.487 22.9677C172.162 22.4279 172.892 22.0414 173.677 21.8083C174.463 21.5752 175.186 21.4587 175.849 21.4587H184.48V26.2434H175.886C175.248 26.2434 174.763 26.409 174.432 26.7403C174.101 27.0593 173.935 27.5316 173.935 28.1573V34.5983C173.935 35.2485 174.095 35.7392 174.414 36.0705C174.745 36.4017 175.223 36.5674 175.849 36.5674H184.48C185.13 36.5674 185.615 36.4017 185.934 36.0705C186.253 35.7392 186.412 35.2608 186.412 34.6351V13.0486H191.197V34.6351Z" fill="black"/>
<path d="M165.285 34.636C165.285 35.8749 165.058 36.9238 164.604 37.7824C164.163 38.6288 163.605 39.3219 162.93 39.8617C162.268 40.3891 161.544 40.7694 160.759 41.0025C159.974 41.2355 159.244 41.3521 158.569 41.3521H143.223V36.568H158.569C159.219 36.568 159.698 36.4024 160.004 36.0712C160.323 35.74 160.483 35.2616 160.483 34.636V30.5695H143.223V25.7487H160.483V21.719C160.483 20.4064 159.845 19.7502 158.569 19.7502H143.223V14.9661H158.569C159.391 14.9661 160.127 15.0704 160.777 15.2789C161.427 15.4874 161.998 15.7696 162.488 16.1253C162.991 16.4688 163.421 16.8675 163.776 17.3213C164.132 17.7752 164.42 18.2536 164.641 18.7566C164.862 19.2472 165.022 19.7502 165.12 20.2654C165.23 20.7683 165.285 21.2406 165.285 21.6822V34.636Z" fill="#7F56D9"/>
<rect x="20.3981" y="18.2249" width="1.21827" height="13.1424" fill="#7F56D9"/>
<path d="M21.0072 27.1015L23.2756 40.6756H18.7388L21.0072 27.1015Z" fill="#7F56D9"/>
<path d="M8.78384 19.7536L32.5642 4.70277L45.7168 8.76064L21.0485 25.5332L8.78384 19.7536Z" fill="#7F56D9"/>
</g>
<defs>
<clipPath id="clip0_5_9">
<rect width="206" height="52" fill="white"/>
</clipPath>
</defs>
</svg>
