<svg width="206" height="53" viewBox="0 0 206 53" fill="none" xmlns="http://www.w3.org/2000/svg">
<g clip-path="url(#clip0_5_9)">
<path d="M51.7767 39.0491C51.7767 39.3926 51.7153 39.7115 51.5927 40.0059C51.47 40.3003 51.2983 40.5579 51.0775 40.7787C50.8689 40.9873 50.6175 41.1529 50.3231 41.2755C50.0287 41.3982 49.7097 41.4595 49.3662 41.4595H32.1068C31.6652 41.4595 31.1868 41.4105 30.6716 41.3123C30.1686 41.2019 29.6657 41.0363 29.1628 40.8155C28.6721 40.5947 28.1998 40.3126 27.7459 39.9691C27.2921 39.6134 26.8873 39.1902 26.5315 38.6995C26.188 38.1965 25.912 37.62 25.7035 36.9699C25.495 36.3075 25.3907 35.5653 25.3907 34.7434V21.7896C25.3907 21.348 25.4398 20.8758 25.5379 20.3728C25.6483 19.8576 25.8139 19.3547 26.0347 18.864C26.2555 18.3611 26.5438 17.8827 26.8995 17.4288C27.2553 16.9749 27.6785 16.5762 28.1691 16.2328C28.6721 15.877 29.2486 15.5949 29.8988 15.3864C30.5489 15.1778 31.2849 15.0735 32.1068 15.0735H51.5559V19.8576H32.1068C31.4812 19.8576 31.0028 20.0232 30.6716 20.3544C30.3404 20.6856 30.1748 21.1763 30.1748 21.8264V34.7434C30.1748 35.3568 30.3404 35.8352 30.6716 36.1787C31.0151 36.5099 31.4935 36.6755 32.1068 36.6755H46.9926V30.677H34.2596V25.8561H49.3662C49.7097 25.8561 50.0287 25.9236 50.3231 26.0585C50.6175 26.1812 50.8689 26.3529 51.0775 26.5737C51.2983 26.7945 51.47 27.0521 51.5927 27.3465C51.7153 27.6287 51.7767 27.9353 51.7767 28.2665V39.0491ZM72.8852 26.3508H62.1196C61.4693 26.3508 60.9786 26.5165 60.6474 26.8477C60.3161 27.1667 60.1505 27.639 60.1505 28.2647V41.4595H55.3658V28.2647C55.3658 27.4427 55.47 26.7066 55.6786 26.0564C55.8872 25.4062 56.1632 24.8357 56.5067 24.3449C56.8625 23.8419 57.2674 23.4187 57.7213 23.0751C58.1752 22.7194 58.6476 22.431 59.1383 22.2102C59.6413 21.9894 60.1443 21.8299 60.6474 21.7317C61.1626 21.6213 61.6411 21.5661 62.0828 21.5661H72.8852V26.3508ZM94.2884 34.8713C94.2884 35.5338 94.1718 36.2515 93.9387 37.0245C93.7056 37.7851 93.3253 38.4967 92.7978 39.1592C92.2825 39.8094 91.6016 40.3554 90.7551 40.797C89.9208 41.2387 88.9025 41.4595 87.7002 41.4595H79.0693C78.4068 41.4595 77.6891 41.343 76.9162 41.1099C76.1555 40.8768 75.4439 40.5026 74.7814 39.9873C74.1312 39.4598 73.5853 38.7789 73.1436 37.9446C72.7019 37.0981 72.4811 36.0736 72.4811 34.8713C72.4811 34.2088 72.5976 33.4911 72.8307 32.7182C73.0638 31.9453 73.438 31.2337 73.9533 30.5835C74.4809 29.921 75.1618 29.3689 75.996 28.9272C76.8425 28.4856 77.867 28.2647 79.0693 28.2647H87.7002V32.8286H79.0693C78.4191 32.8286 77.916 33.031 77.5603 33.4359C77.2045 33.8285 77.0266 34.3192 77.0266 34.9081C77.0266 35.5338 77.229 36.0246 77.6339 36.3804C78.051 36.7239 78.5417 36.8956 79.1061 36.8956H87.7002C88.3504 36.8956 88.8534 36.6993 89.2092 36.3067C89.565 35.9142 89.7429 35.4234 89.7429 34.8345V28.1543C89.7429 27.5286 89.5466 27.0317 89.154 26.6637C88.7737 26.2956 88.2891 26.1116 87.7002 26.1116H77.1922V21.5661H87.7002C88.3627 21.5661 89.0743 21.6827 89.8349 21.9158C90.6078 22.1489 91.3194 22.5292 91.9696 23.0567C92.6321 23.572 93.1842 24.2529 93.6259 25.0994C94.0676 25.9337 94.2884 26.952 94.2884 28.1543V34.8713ZM119.667 41.4595H114.882V30.4179C114.882 29.7922 114.771 29.2339 114.551 28.7432C114.342 28.2402 114.054 27.8108 113.686 27.455C113.318 27.0992 112.882 26.8293 112.379 26.6453C111.888 26.449 111.355 26.3508 110.778 26.3508H102.405V41.4595H97.62V23.9401C97.62 23.6088 97.6814 23.3021 97.8041 23.0199C97.9267 22.7255 98.0985 22.474 98.3193 22.2654C98.5402 22.0446 98.7978 21.8728 99.0923 21.7501C99.3867 21.6275 99.6995 21.5661 100.031 21.5661H110.815C111.416 21.5661 112.048 21.6336 112.71 21.7685C113.385 21.9035 114.048 22.1243 114.698 22.431C115.36 22.7255 115.986 23.1058 116.575 23.572C117.176 24.026 117.704 24.5842 118.158 25.2467C118.624 25.8969 118.992 26.6514 119.262 27.5102C119.532 28.369 119.667 29.3382 119.667 30.4179V41.4595ZM140.61 26.3508H132.255V41.4595H127.415V26.3508H121.195V21.5661H127.415V15.0699H132.255V21.5661H140.61V26.3508ZM191.197 34.7425C191.197 35.5645 191.093 36.3067 190.884 36.9692C190.675 37.6195 190.399 38.1961 190.056 38.6991C189.712 39.1898 189.314 39.6131 188.86 39.9689C188.406 40.3124 187.927 40.5946 187.424 40.8154C186.933 41.0363 186.43 41.2019 185.915 41.3123C185.412 41.4105 184.934 41.4595 184.48 41.4595H175.849C175.027 41.4595 174.291 41.3552 173.641 41.1467C172.99 40.9381 172.414 40.6621 171.911 40.3186C171.42 39.9628 170.997 39.5579 170.641 39.104C170.297 38.65 170.015 38.1777 169.794 37.687C169.574 37.1839 169.408 36.6809 169.297 36.1779C169.199 35.6626 169.15 35.1842 169.15 34.7425V28.2647C169.15 27.0379 169.371 26.0012 169.813 25.1547C170.267 24.2959 170.825 23.6027 171.487 23.0751C172.162 22.5353 172.892 22.1489 173.677 21.9158C174.463 21.6827 175.186 21.5661 175.849 21.5661H184.48V26.3508H175.886C175.248 26.3508 174.763 26.5165 174.432 26.8477C174.101 27.1667 173.935 27.639 173.935 28.2647V34.7057C173.935 35.3559 174.094 35.8467 174.413 36.1779C174.745 36.5092 175.223 36.6748 175.849 36.6748H184.48C185.13 36.6748 185.615 36.5092 185.934 36.1779C186.253 35.8467 186.412 35.3682 186.412 34.7425V13.156H191.197V34.7425Z" fill="black"/>
<path d="M165.285 34.7434C165.285 35.9824 165.058 37.0312 164.604 37.8899C164.163 38.7363 163.605 39.4294 162.93 39.9691C162.268 40.4966 161.544 40.8769 160.759 41.1099C159.974 41.343 159.244 41.4595 158.569 41.4595H143.223V36.6755H158.569C159.219 36.6755 159.698 36.5099 160.004 36.1787C160.323 35.8474 160.483 35.369 160.483 34.7434V30.677H143.223V25.8561H160.483V21.8264C160.483 20.5139 159.845 19.8576 158.569 19.8576H143.223V15.0735H158.569C159.391 15.0735 160.127 15.1778 160.777 15.3864C161.427 15.5949 161.998 15.877 162.488 16.2328C162.991 16.5762 163.421 16.9749 163.776 17.4288C164.132 17.8827 164.42 18.3611 164.641 18.864C164.862 19.3547 165.021 19.8576 165.12 20.3728C165.23 20.8758 165.285 21.348 165.285 21.7896V34.7434Z" fill="#7F56D9"/>
<rect x="20.3981" y="18.3324" width="1.21827" height="13.1424" fill="#7F56D9"/>
<path d="M21.0072 27.209L23.2756 40.783H18.7387L21.0072 27.209Z" fill="#7F56D9"/>
<path d="M8.78381 19.8611L32.5642 4.81024L45.7168 8.86811L21.0485 25.6407L8.78381 19.8611Z" fill="#7F56D9"/>
</g>
<defs>
<clipPath id="clip0_5_9">
<rect width="206" height="52" fill="white" transform="translate(0 0.107452)"/>
</clipPath>
</defs>
</svg>
